<svg width="48" height="44" viewBox="0 0 48 44" fill="none" xmlns="http://www.w3.org/2000/svg">
<path d="M48 9.91735L9.19149 5.45455L6.6383 0.495868L0.510638 0L0 1.98347L4.08511 3.47107L10.7234 27.2727L13.2766 36.6942H44.4255L44.9362 33.719H14.8085L13.2766 27.2727L46.4681 22.314L48 9.91735Z" fill="black"/>
<path d="M19.9149 40.6612C19.9149 42.3043 18.5432 43.6364 16.8511 43.6364C15.159 43.6364 13.7872 42.3043 13.7872 40.6612C13.7872 39.018 15.159 37.6859 16.8511 37.6859C18.5432 37.6859 19.9149 39.018 19.9149 40.6612Z" fill="black"/>
<path d="M41.3617 40.6612C41.3617 42.3043 39.99 43.6364 38.2979 43.6364C36.6058 43.6364 35.234 42.3043 35.234 40.6612C35.234 39.018 36.6058 37.6859 38.2979 37.6859C39.99 37.6859 41.3617 39.018 41.3617 40.6612Z" fill="black"/>
</svg>
